<?xml version="1.0" encoding="UTF-8"?>
<svg id="_图层_1" data-name="图层 1" xmlns="http://www.w3.org/2000/svg" viewBox="0 0 600 600">
  <defs>
    <style>
      .cls-1 {
        fill: #f2efd7;
      }
    </style>
  </defs>
  <rect class="cls-1" x="-39.04" y="-46.09" width="685.8" height="722.25"/>
  <g>
    <path d="M373.56,317.01c5.5,0,11.17,.86,16.48-.16,16.13-3.12,32.14-6.91,48.17-10.56,12.87-2.93,25.78-5.57,39.08-4.85,16.48,.9,30.11,6.89,37.72,22.56,5.23,10.77,5.09,22.07,2.21,33.42-4.25,16.73-13.72,30.36-25.84,42.25-17.73,17.4-39.19,28.49-62.49,36.39-1.42,.48-2.82,1-3.63,1.29,.92,8.27,2.11,16.12,2.55,24.02,.23,4.1-.46,8.36-1.39,12.4-5.16,22.46-26.53,32.03-46.85,21.04-12.04-6.51-21.28-16.25-29.97-26.57-3.1-3.68-6.12-7.44-8.89-11.38-1.43-2.03-2.94-2.57-5.34-2.55-18.49,.09-36.98,.02-55.47-.02-1.01,0-2.08,.09-3.03-.19-8.76-2.61-14.46,1.03-20.33,7.65-16.64,18.79-34.26,36.72-55,51.14-5.36,3.72-11.21,7.04-17.29,9.36-19.77,7.53-37.21-4.31-36.77-25.41,.18-8.83,2.02-17.95,4.88-26.33,4.28-12.53,10.13-24.52,15.32-36.74,.34-.8,.7-1.59,1.19-2.71-2.79-1.2-5.43-2.31-8.06-3.47-26.13-11.55-47.83-28.42-63.08-52.91-27.65-44.41-20.84-102.82,16.13-140.47,14.51-14.78,31.28-26.09,50.4-33.89,3.44-1.41,4.88-3.16,5.06-7.17,1.27-28.78,3.84-57.42,13.03-84.96,2.06-6.18,4.9-12.27,8.33-17.81,10.57-17.09,29.92-19.74,45.26-6.59,8.72,7.48,14.65,17.05,20.05,27.01,10.28,18.98,18.22,38.98,25.65,59.18,1.04,2.83,2.2,3.42,5.12,3.27,21.56-1.08,43.08-.51,64.51,2.29,5.78,.75,5.75,.84,8.39-4.55,9.72-19.8,19.61-39.53,33.54-56.81,3.87-4.8,8.21-9.41,13.06-13.17,18.73-14.52,40.16-9.17,50.27,12.28,5.89,12.48,8.98,25.78,11.24,39.3,3.15,18.84,3.81,37.82,2.52,56.85-.92,13.55-7.2,24.91-15.68,35.16-11.9,14.39-26.72,25.49-41.53,36.6-10.23,7.67-20.39,15.46-30.3,23.55-3.74,3.05-6.66,7.1-9.96,10.69l.75,1.57ZM215.49,103.87c-1.57,3.26-2.88,5.29-3.56,7.51-2.42,7.98-5.09,15.93-6.83,24.07-4.97,23.12-6.68,46.63-7.35,70.22-.24,8.45-3.98,13.99-12.05,16.95-12.88,4.72-25.18,10.63-36.27,18.87-21.54,16-35.72,36.67-38.67,63.69-3.6,32.9,9.43,59.04,34.66,79.56,13.97,11.36,30.25,18.32,47.22,23.82,8.31,2.69,12.94,9.14,11.44,17.23-.67,3.61-2.86,6.96-4.47,10.37-6.16,13.03-12.64,25.92-18.42,39.12-2.49,5.69-3.57,11.99-5.29,18.02,.35,.2,.71,.41,1.06,.61,1.3-.69,2.69-1.24,3.87-2.09,5.84-4.23,12.21-7.95,17.32-12.94,16.58-16.19,32.76-32.8,48.94-49.41,3.66-3.76,7.59-6.27,12.93-6.03,2.28,.11,4.54,.41,6.81,.66,24.13,2.69,48.34,3.61,72.47,.89,9.86-1.11,16.37,1.61,21.7,9.97,7.24,11.35,16.04,21.57,26.5,30.17,2.58,2.12,5.64,3.66,9.19,5.92,.64-3.32,1.32-5.74,1.55-8.2,1.24-12.97-3.88-23.88-11.83-33.5-13.13-15.9-30.19-25.99-49.72-32.11-19.69-6.17-39.55-6.6-59.66-2-8.67,1.98-16.08-3.33-17.7-11.87-1.43-7.55,3.83-14.79,12.11-16.58,16.49-3.56,33.13-4.65,49.87-2.33,34.23,4.75,63.63,18.88,86.52,45.31,1.44,1.66,2.66,1.92,4.55,1.23,6.41-2.36,12.95-4.39,19.26-7,17.67-7.3,33.65-17.13,45.82-32.25,6.44-8,11.27-16.83,12.49-27.26,.86-7.38-2.33-12.02-9.53-13.55-8.38-1.78-16.71-.54-24.87,1.29-16.05,3.59-31.96,7.83-48.02,11.36-12.54,2.75-25.29,4.45-38.09,1.9-11.93-2.37-21.22-8.28-24.71-20.79-2.6-9.33,.11-17.83,4.84-25.76,5.82-9.76,14.38-16.99,23.24-23.8,10.95-8.42,22.38-16.23,33.1-24.91,8.94-7.23,17.48-15.03,25.6-23.17,6.95-6.96,10.5-15.77,10.11-25.83-.5-12.65-.52-25.35-1.76-37.93-1.27-12.85-4.09-25.5-9.34-37.44-2.09-4.75-3.6-5.3-7.1-1.61-4.94,5.21-10.15,10.52-13.64,16.69-10.39,18.39-20.07,37.18-29.87,55.89-3.82,7.31-9.63,10.49-17.73,9.15-28.29-4.69-56.73-5.41-85.28-3.25-9.72,.74-15.36-2.69-18.75-11.74-3.77-10.07-7.43-20.19-11.46-30.16-6.51-16.08-13.28-32.07-22.83-46.66-2.23-3.41-5.15-6.36-8.4-10.3Z"/>
    <path d="M237.8,250.44c6.84-.03,13.42,1.44,19.32,4.79,2.78,1.58,4.34,.93,6.63-.65,14.6-10.05,29.85-10.97,45.43-2.45,6.72,3.67,11.66,9.32,15.21,16.06,4.06,7.7,1.65,15.98-5.59,19.99-6.94,3.85-15.14,1.41-19.59-5.84-4.31-7.01-11.23-9.26-17.6-5.2-2.14,1.37-4.01,3.88-4.96,6.28-2.43,6.17-6.64,9.91-13.12,10.58-6.37,.67-11.22-2.15-14.58-7.66-3.83-6.29-8.54-8.25-14.86-6.53-3.87,1.06-6.34,3.39-7.55,7.24-2.75,8.7-10.54,12.93-18.65,10.24-7.93-2.64-11.86-11.43-8.86-19.86,5.87-16.53,21.03-27.09,38.77-27.02Z"/>
  </g>
</svg>